<svg height="254" preserveAspectRatio="xMidYMid" viewBox="0 0 256 254" width="256" xmlns="http://www.w3.org/2000/svg" xmlns:xlink="http://www.w3.org/1999/xlink"><linearGradient id="a" x1="50.000048%" x2="50.000048%" y1="0%" y2="99.999921%"><stop offset="0" stop-color="#fff"/><stop offset="1" stop-color="#fff" stop-opacity="0"/></linearGradient><mask id="b" fill="#fff"><path d="m180.82764 252.605272c4.016311 1.564887 8.59642 1.46428 12.650584-.486102l52.500918-25.262319c5.516451-2.65463 9.024747-8.238817 9.024747-14.363891v-171.2957755c0-6.1252732-3.508296-11.7085634-9.024747-14.3631938l-52.500918-25.26330519c-5.320218-2.55994222-11.546895-1.93291555-16.215658 1.46166039-.667393.48492576-1.302911 1.02635082-1.898584 1.62302008l-100.5073927 91.69447842-43.7787891-33.2316887c-4.0753805-3.0935159-9.7757136-2.8401058-13.5607284.6029448l-14.04129121 12.772607c-4.62980482 4.2115486-4.63511408 11.4951968-.01146521 15.713519l37.96644362 34.6372985-37.96644362 34.637696c-4.62364887 4.218521-4.61833961 11.50207.01146521 15.713619l14.04129121 12.772109c3.7850148 3.443548 9.4853479 3.69656 13.5607284.603642l43.7787891-33.232187 100.5073927 91.694817c1.58979 1.590786 3.456498 2.789105 5.463658 3.571051zm10.464124-183.6493202-76.262101 57.8885732 76.262101 57.888871z" fill="#fff"/></mask><path d="m246.134784 26.873337-52.541759-25.29809927c-6.081245-2.92824355-13.349852-1.69304554-18.123206 3.07990911l-172.00340183 156.82707416c-4.62645789 4.218521-4.62113867 11.50207.01147518 15.713619l14.04978805 12.772109c3.7874054 3.443548 9.4912249 3.69656 13.5689961.603642l207.1319905-157.1352905c6.948856-5.2716078 16.929868-.3153681 16.929868 8.4069603v-.6100172c0-6.1225836-3.5073-11.7038817-9.023751-14.3599066z" fill="#0065a9" mask="url(#b)"/><path d="m246.134784 226.816011-52.541759 25.298179c-6.081245 2.927564-13.349852 1.692389-18.123206-3.079969l-172.00340183-156.8271937c-4.62645789-4.2182226-4.62113867-11.50207.01147518-15.7135191l14.04978805-12.772607c3.7874054-3.4430506 9.4912249-3.6965603 13.5689961-.6029447l207.1319905 157.1346925c6.948856 5.271409 16.929868.315767 16.929868-8.407159v.610614c0 6.122086-3.5073 11.703284-9.023751 14.359907z" fill="#007acc" mask="url(#b)"/><path d="m193.428324 252.134497c-6.083238 2.925572-13.351845 1.689401-18.125199-3.083953 5.881028 5.881027 15.937743 1.715299 15.937743-6.60221v-231.1753717c0-8.31753961-10.056715-12.48301323-15.937743-6.60160249 4.773354-4.77339792 12.041961-6.01033911 18.125199-3.08468047l52.532793 25.26333506c5.520436 2.6546304 9.030724 8.2379207 9.030724 14.3631938v171.2960748c0 6.125074-3.510288 11.708265-9.030724 14.362895z" fill="#1f9cf0" mask="url(#b)"/><path d="m180.827889 252.605272c4.016311 1.563891 8.59642 1.46428 12.649587-.486102l52.500919-25.263315c5.517447-2.65463 9.025743-8.237821 9.025743-14.362895v-171.2959747c0-6.1252732-3.508296-11.7085634-9.024747-14.3631938l-52.501915-25.26326537c-5.319221-2.55994919-11.545898-1.93292252-16.215657 1.46165043-.666397.48492576-1.301915 1.02635082-1.898584 1.62302008l-100.5066955 91.69444856-43.7787891-33.2316887c-4.0752809-3.093516-9.7757136-2.8400062-13.5607284.6029447l-14.0412414 12.772607c-4.62980483 4.2115487-4.63511409 11.4952965-.01146521 15.7136187l37.96649341 34.6373981-37.96649341 34.637696c-4.62364888 4.218521-4.61833962 11.50207.01146521 15.713619l14.0412414 12.772109c3.7850148 3.443548 9.4854475 3.69656 13.5607284.603642l43.7787891-33.232187 100.5066955 91.694817c1.58979 1.590786 3.457494 2.789105 5.464654 3.571051zm10.464124-183.6495194-76.262101 57.8887724 76.262101 57.888871z" fill="url(#a)" fill-opacity=".25" mask="url(#b)"/></svg>